<svg width="324" height="265" viewBox="0 0 324 265" fill="none" xmlns="http://www.w3.org/2000/svg">
<circle cx="154.853" cy="147.706" r="97.6764" fill="#FF6A2B" fill-opacity="0.2"/>
<circle cx="154.852" cy="147.706" r="71.4706" fill="#E93858" fill-opacity="0.4"/>
<path opacity="0.99" d="M146.459 165.586C145.898 165.587 145.343 165.474 144.825 165.254C144.307 165.035 143.837 164.712 143.441 164.306L131.436 152.022C130.644 151.202 130.201 150.094 130.205 148.94C130.208 147.787 130.658 146.681 131.455 145.866C132.252 145.05 133.332 144.59 134.459 144.587C135.586 144.583 136.669 145.036 137.471 145.846L146.458 155.042L169.851 131.105C170.654 130.295 171.736 129.842 172.864 129.846C173.991 129.849 175.071 130.309 175.868 131.125C176.665 131.941 177.115 133.046 177.118 134.199C177.122 135.353 176.679 136.461 175.887 137.281L149.476 164.306C149.08 164.713 148.61 165.035 148.092 165.254C147.574 165.474 147.019 165.587 146.459 165.586Z" fill="white"/>
<path d="M153.661 104.029C145.219 104.029 136.967 106.591 129.948 111.39C122.928 116.189 117.457 123.011 114.227 130.992C110.996 138.972 110.151 147.754 111.798 156.227C113.445 164.699 117.51 172.481 123.479 178.59C129.449 184.698 137.054 188.858 145.334 190.543C153.614 192.228 162.196 191.363 169.996 188.058C177.795 184.752 184.461 179.154 189.152 171.971C193.842 164.789 196.345 156.344 196.345 147.706C196.332 136.126 191.831 125.025 183.829 116.837C175.827 108.648 164.978 104.043 153.661 104.029ZM175.887 137.281L149.476 164.306C149.08 164.712 148.61 165.034 148.092 165.253C147.574 165.473 147.019 165.586 146.458 165.586C145.898 165.586 145.343 165.473 144.825 165.253C144.307 165.034 143.837 164.712 143.44 164.306L131.436 152.022C130.644 151.202 130.201 150.093 130.205 148.94C130.208 147.787 130.658 146.681 131.455 145.866C132.252 145.05 133.332 144.59 134.459 144.587C135.586 144.583 136.669 145.036 137.471 145.846L146.458 155.042L169.851 131.105C170.653 130.295 171.736 129.842 172.864 129.846C173.991 129.849 175.071 130.309 175.868 131.125C176.665 131.941 177.114 133.046 177.118 134.199C177.122 135.353 176.679 136.461 175.887 137.281Z" fill="#A85871"/>
<path d="M67.2592 18.5056L75.6821 10.0827" stroke="#B5B5B5" stroke-width="1.5" stroke-linecap="round"/>
<path d="M67.2592 10.0827L75.6821 18.5056" stroke="#B5B5B5" stroke-width="1.5" stroke-linecap="round"/>
<path d="M248.318 254.358L256.741 245.936" stroke="#B5B5B5" stroke-width="1.5" stroke-linecap="round"/>
<path d="M248.318 245.936L256.741 254.358" stroke="#B5B5B5" stroke-width="1.5" stroke-linecap="round"/>
<path d="M30.971 246.971C29.4003 246.971 27.865 247.436 26.5591 248.309C25.2532 249.181 24.2353 250.422 23.6343 251.873C23.0332 253.324 22.876 254.921 23.1824 256.461C23.4888 258.001 24.2451 259.416 25.3557 260.527C26.4663 261.638 27.8813 262.394 29.4217 262.7C30.9622 263.007 32.5589 262.849 34.0099 262.248C35.461 261.647 36.7012 260.63 37.5738 259.324C38.4464 258.018 38.9121 256.482 38.9121 254.912C38.9121 253.869 38.7067 252.836 38.3077 251.873C37.9086 250.909 37.3236 250.034 36.5862 249.296C35.8488 248.559 34.9734 247.974 34.0099 247.575C33.0465 247.176 32.0138 246.971 30.971 246.971ZM30.971 261.265C29.7145 261.265 28.4862 260.892 27.4415 260.194C26.3967 259.496 25.5825 258.504 25.1016 257.343C24.6208 256.182 24.495 254.905 24.7401 253.672C24.9852 252.44 25.5903 251.308 26.4788 250.42C27.3672 249.531 28.4992 248.926 29.7316 248.681C30.9639 248.436 32.2413 248.562 33.4021 249.042C34.563 249.523 35.5552 250.337 36.2532 251.382C36.9513 252.427 37.3239 253.655 37.3239 254.912C37.3239 256.597 36.6546 258.213 35.4632 259.404C34.2718 260.595 32.6559 261.265 30.971 261.265Z" fill="#B5B5B5"/>
<path d="M314.471 132.618C312.9 132.618 311.365 133.083 310.059 133.956C308.753 134.829 307.735 136.069 307.134 137.52C306.533 138.971 306.376 140.568 306.682 142.108C306.989 143.648 307.745 145.063 308.855 146.174C309.966 147.285 311.381 148.041 312.921 148.347C314.462 148.654 316.059 148.497 317.51 147.895C318.961 147.294 320.201 146.277 321.074 144.971C321.946 143.665 322.412 142.129 322.412 140.559C322.412 139.516 322.206 138.483 321.807 137.52C321.408 136.556 320.823 135.681 320.086 134.944C319.349 134.206 318.473 133.621 317.51 133.222C316.546 132.823 315.514 132.618 314.471 132.618ZM314.471 146.912C313.214 146.912 311.986 146.539 310.941 145.841C309.896 145.143 309.082 144.151 308.601 142.99C308.121 141.829 307.995 140.552 308.24 139.319C308.485 138.087 309.09 136.955 309.979 136.067C310.867 135.178 311.999 134.573 313.231 134.328C314.464 134.083 315.741 134.209 316.902 134.689C318.063 135.17 319.055 135.985 319.753 137.029C320.451 138.074 320.824 139.302 320.824 140.559C320.824 142.244 320.154 143.86 318.963 145.051C317.772 146.242 316.156 146.912 314.471 146.912Z" fill="#B5B5B5"/>
<circle cx="5.95588" cy="115.544" r="5.95588" fill="url(#paint0_linear_327_6659)"/>
<circle cx="258.486" cy="39.3088" r="5.95588" fill="url(#paint1_linear_327_6659)"/>
<defs>
<linearGradient id="paint0_linear_327_6659" x1="0" y1="121.5" x2="11.9118" y2="121.5" gradientUnits="userSpaceOnUse">
<stop stop-color="#E93858"/>
<stop offset="1" stop-color="#FF6A2B"/>
</linearGradient>
<linearGradient id="paint1_linear_327_6659" x1="252.53" y1="45.2647" x2="264.442" y2="45.2647" gradientUnits="userSpaceOnUse">
<stop stop-color="#E93858"/>
<stop offset="1" stop-color="#FF6A2B"/>
</linearGradient>
</defs>
</svg>
